<?xml version="1.0" standalone="no"?>
<!DOCTYPE svg PUBLIC "-//W3C//DTD SVG 20010904//EN"
 "http://www.w3.org/TR/2001/REC-SVG-20010904/DTD/svg10.dtd">
<svg version="1.0" xmlns="http://www.w3.org/2000/svg"
 width="95.000000pt" height="95.000000pt" viewBox="0 0 95.000000 95.000000"
 preserveAspectRatio="xMidYMid meet">
<metadata>
Created by potrace 1.14, written by Peter Selinger 2001-2017
</metadata>
<g transform="translate(0.000000,95.000000) scale(0.100000,-0.100000)"
fill="#000000" stroke="none">
<path d="M345 870 c-6 -9 -4 -11 6 -6 8 4 6 1 -3 -7 -10 -8 -18 -20 -18 -28 0
-11 2 -11 10 1 8 13 10 12 10 -3 0 -10 -6 -20 -13 -23 -9 -3 -13 -23 -13 -58
1 -30 3 -52 5 -50 2 2 9 -3 15 -11 10 -14 13 -14 31 0 20 16 20 16 -2 12 -20
-5 -41 18 -28 31 3 3 5 0 5 -6 0 -17 30 -15 36 3 8 20 37 4 64 -37 l22 -33
-29 33 c-25 28 -53 43 -53 26 0 -15 22 -44 30 -39 5 3 12 0 16 -6 5 -8 3 -9
-6 -4 -8 5 -11 3 -8 -6 3 -8 10 -13 15 -12 6 1 6 -15 1 -45 -5 -26 -10 -79
-11 -119 -2 -56 1 -69 11 -61 14 12 16 74 3 82 -16 10 -4 59 19 78 17 14 19
18 6 18 -19 0 -21 16 -4 26 6 4 8 3 5 -2 -3 -6 3 -15 14 -22 10 -7 19 -8 19
-3 0 5 7 12 16 15 11 4 14 1 12 -12 -2 -9 -13 -18 -26 -18 -40 -2 -43 -4 -37
-14 3 -5 2 -10 -4 -10 -7 0 -7 -8 1 -25 6 -13 14 -22 19 -20 14 9 21 -16 9
-30 -9 -11 -9 -15 -1 -16 26 -3 30 -4 37 -11 4 -5 0 -8 -9 -8 -10 0 -17 -5
-17 -11 0 -6 -7 -9 -15 -6 -8 4 -17 2 -20 -4 -4 -5 -3 -9 2 -8 27 5 33 -1 23
-23 -10 -21 -9 -21 9 2 11 14 21 28 21 33 0 4 15 7 33 7 28 0 78 19 52 20 -5
0 0 8 13 18 23 18 23 18 4 42 -11 14 -20 30 -21 35 -3 25 -13 45 -22 45 -5 0
-9 8 -9 18 -1 13 -4 11 -15 -8 l-15 -25 6 26 c6 28 -2 37 -38 44 -13 3 -29 13
-36 22 -7 10 -26 33 -43 51 -24 25 -30 38 -25 57 4 15 2 25 -4 25 -6 0 -9 -4
-5 -9 9 -15 -15 -25 -28 -12 -9 9 -7 10 8 5 11 -4 17 -4 13 1 -4 4 -4 13 1 19
6 7 1 22 -14 40 -16 20 -25 25 -30 16z m176 -243 c-5 -5 -18 -4 -30 2 -32 17
-25 31 9 18 17 -6 26 -15 21 -20z m54 -47 c3 -5 1 -12 -5 -15 -6 -4 3 -20 24
-38 l34 -32 -36 -18 c-37 -17 -37 -17 -14 2 12 11 20 26 16 34 -5 13 -9 13
-34 -1 -24 -14 -27 -20 -19 -37 10 -19 10 -19 -5 -1 -11 14 -13 24 -5 37 8 15
6 19 -6 19 -10 0 -13 -5 -9 -12 5 -7 3 -8 -5 -3 -7 4 -10 16 -8 27 4 14 2 17
-7 9 -9 -8 -13 -7 -13 2 0 7 10 14 21 15 11 0 22 5 23 9 4 12 41 14 48 3z"/>
<path d="M530 557 c0 -9 5 -17 11 -17 6 0 9 -7 6 -14 -4 -10 -1 -13 9 -9 18 7
18 10 -6 35 -17 19 -20 19 -20 5z"/>
<path d="M810 438 c-23 -9 -24 -10 -7 -22 23 -18 22 -39 -5 -81 -27 -41 -29
-42 -46 -14 -10 15 -11 24 -3 32 6 6 11 14 11 18 0 12 -46 16 -71 7 -21 -8
-22 -11 -8 -21 29 -22 66 -92 67 -127 2 -44 -7 -72 -19 -65 -5 4 -9 3 -9 -2 0
-13 49 -32 56 -22 3 5 9 7 14 4 4 -3 14 2 21 11 10 12 10 15 -2 12 -10 -2 -15
10 -17 45 -3 42 2 57 37 112 46 72 49 85 24 107 -14 12 -24 13 -43 6z"/>
<path d="M180 379 c-23 -9 -23 -11 -7 -20 25 -14 26 -184 1 -193 -9 -4 -15 -9
-12 -12 10 -9 60 -15 80 -8 17 5 18 7 4 23 -23 25 -21 177 2 190 15 8 13 11
-11 20 -16 6 -29 11 -30 10 -1 0 -13 -5 -27 -10z"/>
<path d="M324 371 c-52 -32 -71 -119 -39 -181 16 -31 65 -55 95 -47 11 3 20 0
20 -5 0 -7 4 -7 13 0 12 10 18 12 37 12 6 0 10 4 10 10 0 5 -6 9 -12 7 -21 -4
-23 65 -2 80 16 11 15 13 -9 22 -14 5 -37 7 -52 3 -24 -7 -26 -9 -11 -21 9 -7
16 -26 16 -42 0 -24 -4 -29 -24 -29 -43 0 -60 50 -42 126 13 55 86 65 86 12 0
-33 20 -8 25 30 3 25 0 32 -13 33 -9 0 -28 3 -42 5 -14 2 -39 -5 -56 -15z"/>
<path d="M543 376 c-44 -20 -66 -67 -61 -131 6 -68 33 -99 88 -100 22 0 40 -4
40 -9 0 -5 7 -2 17 5 9 8 18 13 20 12 1 -2 9 -3 16 -3 7 1 5 6 -5 14 -11 8
-18 27 -18 49 0 26 5 37 18 40 29 7 -29 26 -61 20 -30 -6 -35 -18 -12 -27 23
-8 19 -63 -4 -69 -32 -8 -54 26 -54 84 -1 44 3 55 27 75 22 19 31 22 47 14 10
-6 19 -21 19 -33 1 -21 1 -21 12 -3 19 33 18 66 0 66 -10 0 -26 2 -37 5 -11 3
-34 -2 -52 -9z"/>
<path d="M383 85 c0 -8 4 -12 9 -9 4 3 8 9 8 15 0 5 -4 9 -8 9 -5 0 -9 -7 -9
-15z"/>
<path d="M453 86 c0 -8 6 -12 14 -9 7 3 10 9 7 14 -8 14 -21 11 -21 -5z"/>
<path d="M490 85 c0 -8 5 -15 10 -15 6 0 10 7 10 15 0 8 -4 15 -10 15 -5 0
-10 -7 -10 -15z"/>
<path d="M530 86 c0 -9 7 -16 16 -16 9 0 14 5 12 12 -6 18 -28 21 -28 4z"/>
<path d="M575 91 c-6 -11 13 -26 22 -17 4 3 0 6 -8 6 -11 0 -11 2 1 10 9 6 10
10 3 10 -6 0 -14 -4 -18 -9z"/>
<path d="M621 88 c-1 -10 6 -18 14 -18 8 0 15 5 15 11 0 5 -4 8 -9 5 -5 -4
-12 0 -14 6 -3 8 -6 6 -6 -4z"/>
<path d="M415 80 c-3 -5 1 -10 10 -10 9 0 13 5 10 10 -3 6 -8 10 -10 10 -2 0
-7 -4 -10 -10z"/>
</g>
</svg>
